<?xml version="1.0" encoding="UTF-8"?><svg xmlns="http://www.w3.org/2000/svg" viewBox="0 0 59.23 31"><defs><style>.d{fill:none;stroke-width:3px;}.d,.e{stroke:#b3b3b3;stroke-miterlimit:10;}.e{fill:#b3b3b3;}</style></defs><g id="a"/><g id="b"><g id="c"><g><path class="d" d="M29.61,1.5C18.24,1.5,8.15,7.01,1.87,15.5c6.28,8.49,16.37,14,27.75,14s21.46-5.51,27.75-14C51.08,7.01,40.99,1.5,29.61,1.5Z"/><circle class="d" cx="29.61" cy="15.5" r="14"/><path class="e" d="M29.86,19.58c0-1.93,1.57-3.5,3.5-3.5,1.59,0,2.92,1.07,3.35,2.53,.42-.95,.65-2,.65-3.11,0-4.28-3.47-7.75-7.75-7.75s-7.75,3.47-7.75,7.75,3.47,7.75,7.75,7.75c.87,0,1.7-.15,2.48-.41-1.3-.51-2.23-1.77-2.23-3.25Z"/></g></g></g></svg>