<?xml version="1.0" encoding="UTF-8"?><svg xmlns="http://www.w3.org/2000/svg" viewBox="0 0 66 66"><g id="a"/><g id="b"><g id="c"><path d="M33,3c16.54,0,30,13.46,30,30s-13.46,30-30,30S3,49.54,3,33,16.46,3,33,3m0-3C14.77,0,0,14.77,0,33s14.77,33,33,33,33-14.77,33-33S51.23,0,33,0h0Z"/><path d="M33,3c16.54,0,30,13.46,30,30,0,5.66-1.53,11.03-4.47,15.75-6.49-6.88-15.42-10.75-25.03-10.75s-19.11,4.2-25.61,11.4c-3.17-4.85-4.89-10.56-4.89-16.4C3,16.46,16.46,3,33,3m0-3C14.77,0,0,14.77,0,33c0,8.12,2.94,15.55,7.8,21.3,5.71-8.04,15.09-13.3,25.7-13.3s19.49,4.97,25.24,12.65c4.54-5.65,7.26-12.83,7.26-20.65C66,14.77,51.23,0,33,0h0Z"/><path d="M32.5,10c6.34,0,11.5,5.16,11.5,11.5s-5.16,11.5-11.5,11.5-11.5-5.16-11.5-11.5,5.16-11.5,11.5-11.5m0-3c-8.01,0-14.5,6.49-14.5,14.5s6.49,14.5,14.5,14.5,14.5-6.49,14.5-14.5-6.49-14.5-14.5-14.5h0Z"/></g></g></svg>